<?xml version="1.0" encoding="iso-8859-1"?>
<!-- Uploaded to: SVG Repo, www.svgrepo.com, Generator: SVG Repo Mixer Tools -->
<svg height="800px" width="800px" version="1.1" id="Layer_1" xmlns="http://www.w3.org/2000/svg" xmlns:xlink="http://www.w3.org/1999/xlink" 
	 viewBox="0 0 512 512" xml:space="preserve">
<polygon style="fill:#1EB615;" points="178.389,440.866 256.907,31.349 335.425,440.866 "/>
<g>
	<polygon style="fill:#158E07;" points="374.371,129.114 325.013,386.554 335.425,440.866 434.146,440.866 	"/>
	<polygon style="fill:#158E07;" points="158.101,166.719 105.537,440.866 178.389,440.866 194.526,356.7 	"/>
</g>
<path d="M443.933,470.182h-59.692v-18.846h49.396c3.122,0,6.082-1.394,8.07-3.799c1.988-2.406,2.801-5.575,2.212-8.642
	l-59.775-311.752c-0.945-4.932-5.26-8.498-10.282-8.498c-5.022,0-9.337,3.566-10.282,8.498l-39.076,203.812L266.681,29.377
	c-0.945-4.932-5.26-8.498-10.282-8.498c-5.022,0-9.337,3.566-10.282,8.498l-52.099,271.722l-26.143-136.352
	c-0.945-4.932-5.26-8.498-10.282-8.498s-9.337,3.566-10.282,8.498L94.745,438.895c-0.588,3.067,0.224,6.236,2.212,8.642
	c1.988,2.406,4.948,3.799,8.07,3.799h41.549v18.846h-72.78c-5.781,0-10.47,4.687-10.47,10.47s4.688,10.47,10.47,10.47h370.135
	c5.781,0,10.47-4.687,10.47-10.47S449.714,470.182,443.933,470.182z M363.301,470.182h-96.322v-18.846h67.937h28.385V470.182z
	 M335.165,386.554l38.697-201.84l47.107,245.683H343.57l-2.264-11.807L335.165,386.554z M256.398,86.949l65.851,343.448H190.548
	L256.398,86.949z M157.592,222.319L183.356,356.7l-9.01,46.999l-5.12,26.699h-51.53L157.592,222.319z M167.516,451.336h10.363h68.16
	v18.846h-78.523V451.336z"/>
<path d="M38.2,470.182H10.47c-5.781,0-10.47,4.687-10.47,10.47s4.688,10.47,10.47,10.47H38.2c5.781,0,10.47-4.687,10.47-10.47
	S43.982,470.182,38.2,470.182z"/>
<path d="M501.53,470.182h-22.001c-5.781,0-10.47,4.687-10.47,10.47s4.688,10.47,10.47,10.47h22.001c5.781,0,10.47-4.687,10.47-10.47
	S507.313,470.182,501.53,470.182z"/>
<path d="M173.484,88.418h28.733c5.781,0,10.47-4.687,10.47-10.47c0-5.782-4.688-10.47-10.47-10.47h-28.733
	c-5.781,0-10.47,4.687-10.47,10.47C163.014,83.731,167.703,88.418,173.484,88.418z"/>
<path d="M10.512,88.418h127.375c5.781,0,10.47-4.687,10.47-10.47c0-5.782-4.688-10.47-10.47-10.47H10.512
	c-5.781,0-10.47,4.687-10.47,10.47C0.042,83.731,4.73,88.418,10.512,88.418z"/>
<path d="M129.49,123.25c0-5.782-4.688-10.47-10.47-10.47H62.121c-5.781,0-10.47,4.687-10.47,10.47c0,5.782,4.688,10.47,10.47,10.47
	h56.899C124.802,133.72,129.49,129.033,129.49,123.25z"/>
<path d="M10.512,133.72h16.012c5.781,0,10.47-4.687,10.47-10.47c0-5.782-4.688-10.47-10.47-10.47H10.512
	c-5.781,0-10.47,4.687-10.47,10.47C0.042,129.033,4.73,133.72,10.512,133.72z"/>
<path d="M219.522,405.682c0.666,0.128,1.33,0.19,1.983,0.19c4.922,0,9.311-3.487,10.272-8.5l19.448-101.436
	c1.089-5.679-2.633-11.165-8.311-12.254c-5.681-1.085-11.165,2.633-12.254,8.311l-19.448,101.436
	C210.121,399.107,213.843,404.593,219.522,405.682z"/>
<path d="M245.688,269.202c0.667,0.128,1.331,0.19,1.985,0.19c4.921,0,9.31-3.486,10.271-8.498l1.067-5.561
	c1.09-5.679-2.63-11.166-8.309-12.256c-5.68-1.088-11.166,2.631-12.255,8.309l-1.067,5.56
	C236.29,262.625,240.009,268.112,245.688,269.202z"/>
</svg>